# xmcd
# Track frame offsets:
# 150
# 13040
# 25820
# 39782
# 52992
# 66497
# 80307
# 92157
# 104454
# 115997
# 127155
# 140432
# 152500
# 164705
# 177200
# 188667
# 201757
# 214377
# 227765
# 239945
# 252152
# 264852
# 277087
# 288660
#
# Disc length: 4009 seconds
# Revision: 0
# Processed by: cddbd v1.4PL0 Copyright (c) Steve Scherf et al.
# Submitted via: bergue.cddb.CddbMailer 1
#
DISCID=640fa718
DTITLE=The Sons of the Pioneers - Tumbling Tumbleweeds
DYEAR=1900
DGENRE=
TTITLE0=Tumbling Tumbleweeds
TTITLE1=Way Out There
TTITLE2=There's a Round-Up in the Sky
TTITLE3=Echoes from the Hills
TTITLE4=When our old age pension check comes to our door
TTITLE5=The Hills of Old Wyomin'
TTITLE6=Ride Ranger Ride
TTITLE7=One More Time
TTITLE8=Rye Whiskey
TTITLE9=When the Moon comes over Sun Valley
TTITLE10=Private Buckaroo
TTITLE11=I hang my head and cry
TTITLE12=The Timber Trail
TTITLE13=Forgive and forget
TTITLE14=Stars and Stripes on Iwo Jima
TTITLE15=Cool Water
TTITLE16=You're Getting Tired of Me
TTITLE17=Gold Star Mother With Silvery Hair
TTITLE18=You'll be sorry when I'm gone
TTITLE19=I wear your memory in my heart
TTITLE20=No one to cry to
TTITLE21=Grievin' my heart out for you
TTITLE22=Cowboy Camp Meetin'
TTITLE23=Tumbling Tumbleweeds
EXTD=
EXTT0=1934
EXTT1=
EXTT2=
EXTT3=
EXTT4=
EXTT5=
EXTT6=
EXTT7=
EXTT8=
EXTT9=
EXTT10=
EXTT11=
EXTT12=
EXTT13=
EXTT14=
EXTT15=
EXTT16=
EXTT17=
EXTT18=
EXTT19=
EXTT20=
EXTT21=
EXTT22=
EXTT23=1946
PLAYORDER=
